# xmcd
#
# Track frame offsets:
#	150
#	22335
#	44607
#	65113
#	74737
#	91771
#	112144
#	120605
#	138235
#	154523
#	171982
#	188169
#	203479
#	223460
#	237998
#	256588
#	267313
#	283773
#	298490
#	313109
#	327212
#	340427
#
# Disc length: 4792 seconds
#
# Revision: 1
# Processed by: cddbd v1.4PL0 Copyright (c) Steve Scherf et al.
# Submitted via: MusicWizard 6.0.1
#
DISCID=6d12b616
DTITLE=Brendon Croker And The 5 o'Clock Shadows - Boat Trips In The Bay
DYEAR=1900
DGENRE=Independent
TTITLE0=Lonely Boy in Town  (Brendon Croker)
TTITLE1=The Shuffle  (Brendon Croker)
TTITLE2=Railroad Blues  (Brendon Croker)
TTITLE3=Last Train To Glory  (Brendon Croker)
TTITLE4=Joshua Gone Barbados  (Brendon Croker)
TTITLE5=Let Me Explain  (Brendon Croker)
TTITLE6=Henry Thomas (deceased) (Brendon Croker)
TTITLE7=Georgia Crawl  (Brendon Croker)
TTITLE8=I Walk The Line  (Brendon Croker)
TTITLE9=Darlin'  (Brendon Croker)
TTITLE10=No Money At All  (Brendon Croker)
TTITLE11=You Don't Need Me Here  (Brendon Croker)
TTITLE12=Shine On  (Brendon Croker)
TTITLE13=This Man  (Brendon Croker)
TTITLE14=Wrong Decision  (Brendon Croker)
TTITLE15=That's Why I'm Leaving Here  (Brendon Croker)
TTITLE16=All Mixed Up  (Brendon Croker)
TTITLE17=This Kind Of Life  (Brendon Croker)
TTITLE18=My Government  (Brendon Croker)
TTITLE19=Ain't Gonna Smile  (Brendon Croker)
TTITLE20=Just An Old Waltz  (Brendon Croker)
TTITLE21=Mister  (Brendon Croker)
EXTD=
EXTT0=
EXTT1=
EXTT2=
EXTT3=
EXTT4=
EXTT5=
EXTT6=
EXTT7=
EXTT8=
EXTT9=
EXTT10=
EXTT11=
EXTT12=
EXTT13=
EXTT14=
EXTT15=
EXTT16=
EXTT17=
EXTT18=
EXTT19=
EXTT20=
EXTT21=
PLAYORDER=
